<?xml version="1.0" encoding="UTF-8" standalone="no"?>
<svg
   inkscape:version="1.3.2 (091e20e, 2023-11-25, custom)"
   height="322.83725"
   width="1440"
   sodipodi:docname="waves.svg"
   version="1.1"
   viewBox="0 0 1440 322.83724"
   id="Layer_2"
   xmlns:inkscape="http://www.inkscape.org/namespaces/inkscape"
   xmlns:sodipodi="http://sodipodi.sourceforge.net/DTD/sodipodi-0.dtd"
   xmlns="http://www.w3.org/2000/svg"
   xmlns:svg="http://www.w3.org/2000/svg"
   xmlns:rdf="http://www.w3.org/1999/02/22-rdf-syntax-ns#"
   xmlns:cc="http://creativecommons.org/ns#"
   xmlns:dc="http://purl.org/dc/elements/1.1/">
  <metadata
     id="metadata88">
    <rdf:RDF>
      <cc:Work
         rdf:about="">
        <dc:format>image/svg+xml</dc:format>
        <dc:type
           rdf:resource="http://purl.org/dc/dcmitype/StillImage" />
      </cc:Work>
    </rdf:RDF>
  </metadata>
  <sodipodi:namedview
     inkscape:guide-bbox="true"
     showguides="true"
     inkscape:current-layer="g2"
     inkscape:window-maximized="1"
     inkscape:window-y="-8"
     inkscape:window-x="1912"
     inkscape:cy="139.5481"
     inkscape:cx="759.83606"
     inkscape:zoom="0.74884574"
     fit-margin-bottom="0"
     fit-margin-right="0"
     fit-margin-left="0"
     fit-margin-top="0"
     showgrid="false"
     id="namedview86"
     inkscape:window-height="1017"
     inkscape:window-width="1920"
     inkscape:pageshadow="2"
     inkscape:pageopacity="0"
     guidetolerance="10"
     gridtolerance="10"
     objecttolerance="10"
     borderopacity="1"
     bordercolor="#666666"
     pagecolor="#000000"
     inkscape:document-rotation="0"
     inkscape:showpageshadow="2"
     inkscape:pagecheckerboard="0"
     inkscape:deskcolor="#d1d1d1" />
  <defs
     id="defs52">
    <style
       id="style50">.cls-1{fill:none;}.cls-2{fill:#003087;}.cls-3{fill:#0085ca;}.cls-4{fill:#a6d4ec;}.cls-5{fill:#54addb;}</style>
  </defs>
  <g
     transform="translate(0,-295.78632)"
     id="g954">
    <g
       id="g1023">
      <g
         style="fill:#ffffff;fill-opacity:1"
         id="g1032">
        <g
           id="g1041">
          <g
             id="g1">
            <g
               id="g2">
              <g
                 id="g3">
                <path
                   fill="#ffffff"
                   fill-opacity="1"
                   d="m 0,345.0272 47.999994,-10.69999 c 48,-10.3 144.000006,-32.3 240.000006,-37.3 96,-5 192,5 288,32 96,26.99999 192,68.99999 288,69.29999 96,-0.3 192,-42.3 288,-58.59999 96,-15.7 192,-5.7 240,0 l 48,5.29999 v 192 h -48 c -48,0 -144,0 -240,0 -96,0 -192,0 -288,0 -96,0 -192,0 -288,0 -96,0 -192,0 -288,0 -96,0 -192.000006,0 -240.000006,0 H 0 Z"
                   id="path117-6"
                   style="fill:#0085ca;fill-opacity:1" />
                <path
                   fill="#ffffff"
                   fill-opacity="1"
                   d="m 0,441.0272 48,-9.89729 c 47.999996,-9.5273 144,-29.87689 240,-34.50178 96,-4.62492 192,4.62489 288,29.59939 96,24.97446 192,63.82367 288,64.10117 96,-0.2775 192,-39.12671 288,-54.20388 96,-14.5222 192,-5.27239 240,0 l 48,4.90239 v 177.59636 h -48 c -48,0 -144,0 -240,0 -96,0 -192,0 -288,0 -96,0 -192,0 -288,0 -96,0 -192,0 -288,0 -96,0 -192.000004,0 -240,0 H 0 Z"
                   id="path117"
                   style="fill:#ffffff;fill-opacity:1;stroke-width:0.96176" />
              </g>
            </g>
          </g>
        </g>
      </g>
    </g>
  </g>
  <style
     id="style121"
     type="text/css">
	.st0{fill:#2EAA9E;}
</style>
</svg>
